<svg width="16" height="16" viewBox="0 0 16 16" fill="none" xmlns="http://www.w3.org/2000/svg">
<path d="M15.3837 7.11625L14.3837 6.11625C14.1984 5.93106 13.9595 5.8088 13.7009 5.76674C13.4423 5.72468 13.177 5.76496 12.9425 5.88188L10.1175 3.05687C10.2345 2.82245 10.2749 2.55719 10.2329 2.29857C10.191 2.03996 10.0688 1.80106 9.88375 1.61563L8.88375 0.615625C8.64934 0.381286 8.33145 0.249642 8 0.249642C7.66854 0.249642 7.35066 0.381286 7.11625 0.615625L3.11625 4.61562C2.88191 4.85003 2.75027 5.16792 2.75027 5.49937C2.75027 5.83083 2.88191 6.14872 3.11625 6.38312L4.11625 7.38312C4.30103 7.56791 4.53907 7.69015 4.79692 7.73264C5.05477 7.77512 5.31945 7.73573 5.55375 7.62L1.835 11.3362C1.45988 11.7114 1.24915 12.2201 1.24915 12.7506C1.24915 13.2811 1.45988 13.7899 1.835 14.165C2.21011 14.5401 2.71888 14.7509 3.24937 14.7509C3.77987 14.7509 4.28863 14.5401 4.66375 14.165L8.375 10.4506C8.26029 10.6846 8.22158 10.9486 8.26427 11.2057C8.30697 11.4627 8.42894 11.7 8.61312 11.8844L9.61312 12.8844C9.7292 13.0005 9.86702 13.0926 10.0187 13.1555C10.1704 13.2183 10.333 13.2507 10.4972 13.2507C10.6614 13.2507 10.824 13.2183 10.9757 13.1555C11.1273 13.0926 11.2652 13.0005 11.3812 12.8844L15.3812 8.88437C15.4974 8.76829 15.5895 8.63047 15.6523 8.47878C15.7152 8.32709 15.7475 8.16451 15.7475 8.00031C15.7475 7.83612 15.7152 7.67353 15.6523 7.52184C15.5895 7.37015 15.4974 7.23233 15.3812 7.11625H15.3837ZM5 6.14625L4.3525 5.5L8 1.85312L8.64625 2.5L5 6.14625ZM3.6025 13.1044C3.50868 13.1981 3.38146 13.2507 3.24884 13.2507C3.11622 13.2506 2.98905 13.1979 2.89531 13.1041C2.80157 13.0102 2.74895 12.883 2.749 12.7504C2.74906 12.6178 2.8018 12.4906 2.89562 12.3969L6.61562 8.67687L7.3225 9.38437L3.6025 13.1044ZM9.39625 9.33625L6.66375 6.60375L9.10125 4.16625L11.8337 6.89875L9.39625 9.33625ZM10.4994 11.6487L9.85312 11L13.5 7.35375L14.1462 8L10.4994 11.6487Z" fill="black"/>
</svg>
