<svg width="16" height="16" viewBox="0 0 16 16" fill="none" xmlns="http://www.w3.org/2000/svg">
<path d="M14.6504 15.1672C14.8223 15.1672 14.9903 15.0774 15.083 14.9181C15.2223 14.6795 15.1418 14.3733 14.9033 14.2345C14.8007 14.1745 14.6817 14.0993 14.5557 14.0207C13.7257 13.5 12.4718 12.7143 10.8213 12.841C10.4127 12.8723 10.2012 12.8855 10.0312 12.8742C9.92438 12.8669 9.88482 12.8619 9.87305 12.8605C9.0676 12.6608 8.50538 11.9708 8.5 11.1711C8.50001 11.1675 8.50098 11.1639 8.50098 11.1603V8.95915C8.50637 7.98472 8.71107 7.65629 8.98926 7.549L9.8584 10.1574C9.92773 10.3667 10.1237 10.4992 10.333 10.4992H10.334C10.386 10.4992 10.4395 10.4911 10.4922 10.4738C10.7541 10.3865 10.8948 10.1029 10.8076 9.84099L9.80762 6.84099C9.73895 6.63699 9.54834 6.49919 9.33301 6.49919C8.99801 6.49923 8.72472 6.56262 8.50098 6.66912L8.50098 2.13298C8.50098 2.13103 8.50001 2.12908 8.5 2.12712C8.50302 1.96444 8.6358 1.83326 8.79785 1.83318C8.91985 1.83318 9.02791 1.90513 9.07324 2.01579L10.8984 6.48162C11.6377 8.28541 12.0091 9.19157 12.7402 9.71892C12.7416 9.72025 12.7441 9.72149 12.7461 9.72283C12.7728 9.74087 12.8565 9.79874 12.9316 9.84001C13.6563 10.292 14.027 10.3136 14.667 10.3136C14.9428 10.3135 15.1669 10.0895 15.167 9.81365C15.167 9.53776 14.9428 9.31382 14.667 9.31365C14.1484 9.31365 13.9734 9.31342 13.4482 8.98357C13.4342 8.9749 13.4229 8.96844 13.4082 8.96111C13.3938 8.95345 13.3539 8.92882 13.3223 8.90642C12.8243 8.54505 12.4892 7.72726 11.8232 6.10271L9.99902 1.63787C9.79969 1.1492 9.32785 0.833178 8.79785 0.833178C8.49683 0.833211 8.22035 0.937713 8 1.11052C7.7798 0.937967 7.50384 0.833283 7.20312 0.833178C6.67379 0.833178 6.20195 1.1492 6.00195 1.63787L4.19043 6.07048L4.17676 6.10271C3.51076 7.72671 3.17507 8.54313 2.67773 8.90447C2.64507 8.92713 2.60539 8.95382 2.59473 8.95915C2.58009 8.96581 2.56604 8.97394 2.55273 8.98259C2.02685 9.3125 1.85163 9.31169 1.33301 9.31169C1.05731 9.31187 0.833258 9.53601 0.833008 9.81169C0.833008 10.0876 1.05716 10.3115 1.33301 10.3117C1.97301 10.3117 2.34369 10.291 3.06836 9.83904C3.14232 9.79837 3.22695 9.73984 3.25293 9.72185C3.25484 9.71999 3.25688 9.71824 3.25879 9.71697C3.98991 9.18962 4.36139 8.28461 5.10059 6.48162L6.92578 2.01482C6.97109 1.9042 7.07924 1.83227 7.20117 1.8322C7.36513 1.8322 7.49895 1.96674 7.49902 2.13201L7.49902 6.66912C7.27529 6.56271 7.00192 6.49919 6.66699 6.49919C6.45173 6.49926 6.26037 6.63704 6.19238 6.84099L5.19238 9.84099C5.10519 10.1029 5.24686 10.3865 5.50879 10.4738C5.56052 10.4917 5.61363 10.4991 5.66602 10.4992H5.66797C5.87725 10.4991 6.07162 10.3667 6.1416 10.1574L7.01074 7.549C7.28667 7.65558 7.49123 7.98065 7.49902 8.94158V11.1584C7.49902 11.963 6.93619 12.6605 6.12695 12.8605C6.11564 12.8619 6.07609 12.8659 5.96777 12.8732C5.79777 12.8845 5.58573 12.8717 5.17773 12.841C3.52665 12.7138 2.27234 13.501 1.44238 14.0217C1.31708 14.1003 1.19835 14.1746 1.0957 14.2345C0.857081 14.3739 0.775814 14.6795 0.915039 14.9181C1.00831 15.0774 1.17578 15.1661 1.34766 15.1662L1.34961 15.1672C1.43483 15.1671 1.52135 15.1447 1.60059 15.0988C1.71725 15.0315 1.84292 14.9526 1.97559 14.8693C2.73748 14.3914 3.78054 13.7372 5.10352 13.839C5.56006 13.873 5.80188 13.8876 6.03516 13.8722C6.17449 13.8629 6.23668 13.8558 6.27734 13.8498C6.29666 13.8478 6.31631 13.8447 6.33496 13.84C7.03367 13.6759 7.61548 13.2698 8 12.7267C8.38457 13.2698 8.96711 13.6756 9.66602 13.84C9.68468 13.8447 9.7043 13.8478 9.72363 13.8498C9.7636 13.8558 9.82547 13.8629 9.96484 13.8722C10.1988 13.8876 10.4401 13.8727 10.8975 13.8381C12.2193 13.7368 13.2624 14.3904 14.0244 14.8683C14.1577 14.9517 14.2837 15.0298 14.4004 15.0978C14.4797 15.1438 14.5661 15.1662 14.6514 15.1662L14.6504 15.1672Z" fill="#161616"/>
</svg>
