<svg width="40" height="40" viewBox="0 0 40 40" fill="none" xmlns="http://www.w3.org/2000/svg">
<path d="M38.0188 18.2328L35.5188 15.7328C35.0948 15.3093 34.5327 15.0522 33.935 15.0083C33.3374 14.9644 32.7438 15.1367 32.2625 15.4938L24.5062 7.7375C24.8635 7.25637 25.036 6.66293 24.9925 6.06525C24.9489 5.46758 24.692 4.90545 24.2688 4.48125L21.7688 1.98125C21.5366 1.74904 21.261 1.56484 20.9576 1.43917C20.6543 1.3135 20.3291 1.24882 20.0008 1.24882C19.6724 1.24882 19.3473 1.3135 19.0439 1.43917C18.7406 1.56484 18.465 1.74904 18.2328 1.98125L8.23281 11.9813C8.0006 12.2134 7.81641 12.489 7.69073 12.7924C7.56506 13.0957 7.50038 13.4209 7.50038 13.7492C7.50038 14.0776 7.56506 14.4027 7.69073 14.7061C7.81641 15.0094 8.0006 15.285 8.23281 15.5172L10.7328 18.0172C11.1569 18.4401 11.7187 18.6966 12.3161 18.7402C12.9134 18.7838 13.5065 18.6115 13.9875 18.2547L15.1078 19.375L4.89219 29.5906C4.2135 30.3329 3.84727 31.3083 3.86976 32.3139C3.89224 33.3194 4.30171 34.2775 5.01289 34.9887C5.72408 35.6999 6.68218 36.1093 7.6877 36.1318C8.69322 36.1543 9.66867 35.7881 10.4109 35.1094L20.625 24.8938L21.7453 26.0125C21.3881 26.4936 21.2155 27.0871 21.2591 27.6847C21.3027 28.2824 21.5595 28.8446 21.9828 29.2688L24.4828 31.7688C24.715 32.001 24.9906 32.1852 25.2939 32.3108C25.5973 32.4365 25.9224 32.5012 26.2508 32.5012C26.5791 32.5012 26.9043 32.4365 27.2076 32.3108C27.511 32.1852 27.7866 32.001 28.0188 31.7688L38.0188 21.7688C38.251 21.5366 38.4352 21.261 38.5608 20.9576C38.6865 20.6543 38.7512 20.3291 38.7512 20.0008C38.7512 19.6724 38.6865 19.3473 38.5608 19.0439C38.4352 18.7406 38.251 18.465 38.0188 18.2328ZM12.5 16.25L10 13.75L20 3.75L22.5 6.25L12.5 16.25ZM8.64375 33.3406C8.38027 33.6025 8.02385 33.7496 7.65234 33.7496C7.28083 33.7496 6.92442 33.6025 6.66094 33.3406C6.3995 33.0772 6.25279 32.7211 6.25279 32.35C6.25279 31.9789 6.3995 31.6228 6.66094 31.3594L16.875 21.1438L18.8578 23.125L8.64375 33.3406ZM15.7812 16.5094L22.7594 9.53125L30.4688 17.2406L23.4922 24.2188L15.7812 16.5094ZM26.25 30L23.75 27.5L24.375 26.875L33.125 18.125L33.75 17.5L36.25 20L26.25 30Z" fill="white"/>
</svg>
