<svg width="40" height="40" viewBox="0 0 40 40" fill="none" xmlns="http://www.w3.org/2000/svg">
<path d="M35 20C35 20.3315 34.8683 20.6495 34.6339 20.8839C34.3995 21.1183 34.0815 21.25 33.75 21.25H9.26719L18.3844 30.3656C18.5005 30.4818 18.5926 30.6196 18.6555 30.7714C18.7183 30.9231 18.7507 31.0858 18.7507 31.25C18.7507 31.4142 18.7183 31.5769 18.6555 31.7286C18.5926 31.8804 18.5005 32.0182 18.3844 32.1344C18.2682 32.2505 18.1304 32.3426 17.9786 32.4055C17.8269 32.4683 17.6642 32.5007 17.5 32.5007C17.3358 32.5007 17.1731 32.4683 17.0214 32.4055C16.8696 32.3426 16.7318 32.2505 16.6156 32.1344L5.36562 20.8844C5.2494 20.7683 5.15721 20.6304 5.0943 20.4787C5.0314 20.3269 4.99902 20.1643 4.99902 20C4.99902 19.8357 5.0314 19.6731 5.0943 19.5213C5.15721 19.3696 5.2494 19.2317 5.36562 19.1156L16.6156 7.86562C16.8502 7.63107 17.1683 7.4993 17.5 7.4993C17.8317 7.4993 18.1498 7.63107 18.3844 7.86562C18.6189 8.10018 18.7507 8.41829 18.7507 8.75C18.7507 9.0817 18.6189 9.39982 18.3844 9.63437L9.26719 18.75H33.75C34.0815 18.75 34.3995 18.8817 34.6339 19.1161C34.8683 19.3505 35 19.6685 35 20Z" fill="#222222"/>
</svg>
