<svg width="40" height="40" viewBox="0 0 40 40" fill="none" xmlns="http://www.w3.org/2000/svg">
<path d="M28.3326 23.7487C31.7843 23.7487 34.5825 26.547 34.5826 29.9987C34.5826 33.4504 31.7844 36.2487 28.3326 36.2487C24.8811 36.2484 22.0826 33.4503 22.0826 29.9987C22.0826 29.8592 22.0893 29.7208 22.0983 29.5836H17.901C17.91 29.7208 17.9166 29.8592 17.9166 29.9987C17.9166 33.4504 15.1183 36.2485 11.6666 36.2487C8.21484 36.2487 5.41662 33.4504 5.41662 29.9987C5.41677 26.547 8.21494 23.7487 11.6666 23.7487C14.0651 23.7487 16.1462 25.101 17.194 27.0836H22.8053C23.8531 25.1011 25.9343 23.7488 28.3326 23.7487ZM11.6666 26.2487C9.59565 26.2487 7.91677 27.9277 7.91662 29.9987C7.91662 32.0697 9.59555 33.7487 11.6666 33.7487C13.7376 33.7485 15.4166 32.0697 15.4166 29.9987C15.4165 27.9278 13.7375 26.2488 11.6666 26.2487ZM28.3326 26.2487C26.2619 26.2489 24.5828 27.9279 24.5826 29.9987C24.5826 32.0696 26.2618 33.7484 28.3326 33.7487C30.4037 33.7487 32.0826 32.0697 32.0826 29.9987C32.0825 27.9277 30.4036 26.2487 28.3326 26.2487ZM24.4108 4.32093C27.212 2.77257 30.6494 4.51719 31.1393 7.66175L32.8824 18.8502C34.4735 19.332 35.9323 19.9014 37.2252 20.5475C37.8428 20.8561 38.0933 21.6067 37.7848 22.2242C37.4762 22.8418 36.7256 23.0923 36.108 22.7838C32.2304 20.8463 26.483 19.5826 19.9996 19.5826C13.5165 19.5827 7.76973 20.8464 3.89221 22.7838C3.27467 23.0924 2.52404 22.8418 2.21545 22.2242C1.90687 21.6067 2.15747 20.8561 2.77502 20.5475C4.06773 19.9016 5.52614 19.3319 7.11682 18.8502L8.86096 7.66175C9.35089 4.51714 12.7882 2.77242 15.5895 4.32093L16.6139 4.88733C18.7249 6.05424 21.2744 6.05422 23.3854 4.88733L24.4108 4.32093ZM28.6686 8.04651C28.4396 6.57693 26.8651 5.82102 25.6197 6.5094L24.5953 7.07581C21.7318 8.65874 18.2685 8.65865 15.4049 7.07581L14.3795 6.5094C13.1342 5.82102 11.5596 6.57693 11.3307 8.04651L9.75451 18.1598C12.8612 17.4663 16.3413 17.0827 19.9996 17.0826C23.6574 17.0826 27.1374 17.4665 30.2438 18.1598L28.6686 8.04651Z" fill="white"/>
</svg>
