<svg width="23" height="23" viewBox="0 0 23 23" fill="none" xmlns="http://www.w3.org/2000/svg">
<path d="M11.1642 20.6021C13.1924 20.6021 14.7856 20.6023 16.0294 20.4351C17.3041 20.2637 18.3158 19.9045 19.1105 19.1099C19.9049 18.3154 20.2633 17.3043 20.4347 16.0298C20.6019 14.7859 20.6017 13.1921 20.6017 11.1636V11.0582C20.6017 9.0299 20.6019 7.43678 20.4347 6.19293C20.2633 4.91827 19.9051 3.90649 19.1105 3.11187C18.3158 2.31724 17.3041 1.95903 16.0294 1.78765C14.7856 1.62044 13.1924 1.62065 11.1642 1.62066H11.0577C9.02951 1.62065 7.4363 1.62043 6.19249 1.78765C4.91801 1.95902 3.90697 2.31746 3.11241 3.11187C2.31778 3.9065 1.95859 4.91824 1.78722 6.19293C1.62003 7.43678 1.62021 9.02993 1.62023 11.0582V11.1636C1.62021 13.1921 1.61998 14.7859 1.78722 16.0298C1.9586 17.3044 2.31782 18.3153 3.11241 19.1099C3.90702 19.9045 4.91786 20.2637 6.19249 20.4351C7.4363 20.6023 9.02951 20.6021 11.0577 20.6021H11.1642ZM11.1114 19.2134C9.01871 19.2134 7.51864 19.2115 6.37804 19.0582C5.25741 18.9075 4.58741 18.622 4.09386 18.1285C3.6003 17.6349 3.31484 16.965 3.16417 15.8443C3.01085 14.7037 3.0089 13.2037 3.0089 11.1109C3.0089 9.01807 3.01082 7.5181 3.16417 6.3775C3.31483 5.2571 3.60046 4.5878 4.09386 4.09429C4.58742 3.60073 5.25737 3.3143 6.37804 3.16363C7.51863 3.01033 9.01875 3.00933 11.1114 3.00933C13.2042 3.00933 14.7042 3.01028 15.8448 3.16363C16.9654 3.31431 17.6345 3.60077 18.128 4.09429C18.6215 4.58781 18.9071 5.25701 19.0577 6.3775C19.2111 7.5181 19.213 9.01807 19.213 11.1109C19.213 13.2037 19.2111 14.7037 19.0577 15.8443C18.9071 16.965 18.6216 17.6349 18.128 18.1285C17.6345 18.6219 16.9652 18.9075 15.8448 19.0582C14.7042 19.2115 13.2042 19.2134 11.1114 19.2134ZM16.211 6.94488C16.7224 6.94482 17.1368 6.52946 17.1368 6.01812C17.1366 5.50697 16.7222 5.0924 16.211 5.09234H16.2023C15.6912 5.09254 15.2767 5.50705 15.2765 6.01812C15.2765 6.52937 15.691 6.94468 16.2023 6.94488H16.211ZM11.1114 15.9722C13.796 15.972 15.9718 13.7955 15.9718 11.1109C15.9717 8.42638 13.7959 6.24974 11.1114 6.24957C8.42679 6.24957 6.25023 8.42628 6.25011 11.1109C6.25011 13.7956 8.42672 15.9722 11.1114 15.9722ZM11.1114 14.5836C9.19378 14.5836 7.63878 13.0285 7.63878 11.1109C7.6389 9.19334 9.19385 7.63921 11.1114 7.63921C13.0289 7.63939 14.583 9.19345 14.5831 11.1109C14.5831 13.0284 13.0289 14.5834 11.1114 14.5836Z" fill="#161616"/>
</svg>
