<svg width="23" height="23" viewBox="0 0 23 23" fill="none" xmlns="http://www.w3.org/2000/svg">
<path d="M4.20822 8.10178C4.60893 8.10173 4.97673 8.10164 5.2756 8.14182C5.60464 8.1861 5.95247 8.29037 6.23849 8.57639C6.52451 8.86242 6.62879 9.21024 6.67306 9.53928C6.71324 9.83816 6.71315 10.2059 6.7131 10.6067V18.5598C6.71315 18.9605 6.71325 19.3283 6.67306 19.6272C6.62881 19.9562 6.52449 20.304 6.23849 20.5901C5.95248 20.8761 5.60463 20.9803 5.2756 21.0246C4.97673 21.0648 4.60893 21.0647 4.20822 21.0647H3.66232C3.26156 21.0647 2.89384 21.0648 2.59494 21.0246C2.26586 20.9804 1.9181 20.8761 1.63205 20.5901C1.34599 20.304 1.24173 19.9563 1.19748 19.6272C1.15729 19.3283 1.15739 18.9605 1.15744 18.5598V10.6067C1.15739 10.2059 1.15729 9.83816 1.19748 9.53928C1.24175 9.21023 1.34601 8.86242 1.63205 8.57639C1.9181 8.29036 2.26587 8.18609 2.59494 8.14182C2.89384 8.10163 3.26156 8.10173 3.66232 8.10178H4.20822ZM16.0158 8.10178C18.5113 8.10196 21.0646 10.2264 21.0647 12.9631L21.0637 18.0979C21.0636 18.4983 21.0638 18.8655 21.0236 19.1643C20.9793 19.4932 20.8749 19.8412 20.5891 20.1272C20.303 20.4132 19.9543 20.5175 19.6252 20.5617C19.3264 20.6019 18.9593 20.6018 18.5588 20.6018H18.0139C17.6134 20.6018 17.2462 20.6019 16.9475 20.5617C16.6183 20.5175 16.2697 20.4133 15.9836 20.1272C15.6976 19.8411 15.5933 19.4933 15.549 19.1643C15.5089 18.8654 15.509 18.4976 15.509 18.0969V13.8889C15.5089 13.4653 15.1954 13.1946 14.8957 13.1946C14.4171 13.1947 14.1595 13.3784 13.9826 13.6721C13.7747 14.0174 13.6575 14.5637 13.6574 15.2776V18.5598C13.6575 18.9605 13.6576 19.3283 13.6174 19.6272C13.5731 19.9563 13.4689 20.304 13.1828 20.5901C12.8968 20.8761 12.549 20.9804 12.2199 21.0246C11.921 21.0648 11.5533 21.0647 11.1526 21.0647H10.6067C10.2059 21.0647 9.83816 21.0648 9.53927 21.0246C9.21023 20.9803 8.86241 20.8761 8.57638 20.5901C8.29037 20.304 8.18607 19.9562 8.14181 19.6272C8.10162 19.3283 8.10172 18.9605 8.10177 18.5598V10.6067C8.10172 10.2059 8.10163 9.83816 8.14181 9.53928C8.18609 9.21023 8.29034 8.86243 8.57638 8.57639C8.86242 8.29035 9.21022 8.1861 9.53927 8.14182C9.83816 8.10163 10.2059 8.10173 10.6067 8.10178C10.8746 8.10176 11.9536 8.10158 12.1594 8.12033C12.3811 8.14064 12.6231 8.18741 12.8557 8.32346C13.0955 8.46384 13.2954 8.66368 13.4358 8.90354L13.4465 8.92307C14.1777 8.40673 15.061 8.10178 16.0158 8.10178ZM3.70333 9.49045C3.24759 9.49045 2.97553 9.49257 2.78048 9.51877C2.69143 9.53074 2.64647 9.54464 2.62619 9.55295C2.6217 9.5548 2.61824 9.55592 2.61642 9.55686L2.61251 9.56076C2.61158 9.56257 2.6105 9.56594 2.60861 9.57053C2.6003 9.59075 2.58643 9.63559 2.57443 9.72483C2.54821 9.91987 2.54611 10.1919 2.54611 10.6477V18.5188C2.54611 18.9745 2.54824 19.2466 2.57443 19.4416C2.58639 19.5306 2.60029 19.5756 2.60861 19.5959C2.61044 19.6004 2.61157 19.6039 2.61251 19.6057L2.61642 19.6096C2.61823 19.6105 2.62162 19.6116 2.62619 19.6135C2.64643 19.6218 2.69131 19.6367 2.78048 19.6487C2.97552 19.6748 3.24767 19.676 3.70333 19.676H4.16623C4.62224 19.676 4.89495 19.6749 5.09005 19.6487C5.17942 19.6366 5.22417 19.6218 5.24435 19.6135C5.24902 19.6116 5.25233 19.6105 5.25412 19.6096L5.25802 19.6057C5.25896 19.6039 5.26012 19.6003 5.26193 19.5959C5.27025 19.5756 5.28416 19.5305 5.29611 19.4416C5.32229 19.2466 5.32443 18.9745 5.32443 18.5188V10.6477C5.32443 10.1919 5.32232 9.91986 5.29611 9.72483C5.28412 9.63567 5.27023 9.59078 5.26193 9.57053C5.26006 9.56599 5.25896 9.56257 5.25802 9.56076L5.25412 9.55686C5.25231 9.55592 5.24894 9.55484 5.24435 9.55295C5.22413 9.54465 5.1793 9.53077 5.09005 9.51877C4.89494 9.49254 4.62232 9.49045 4.16623 9.49045H3.70333ZM10.6477 9.49045C10.1919 9.49045 9.91986 9.49256 9.72482 9.51877C9.66217 9.51633 9.5334 9.55398 9.51876 9.72483C9.49255 9.91987 9.49044 10.1919 9.49044 10.6477V18.5188C9.49044 18.9745 9.49258 19.2466 9.51876 19.4416C9.52994 19.5545 9.66073 19.627 9.72482 19.6487C9.91985 19.6749 10.192 19.676 10.6477 19.676H11.1115C11.5672 19.676 11.8394 19.6748 12.0344 19.6487C12.0981 19.6326 12.2284 19.568 12.2404 19.4416C12.2666 19.2466 12.2688 18.9745 12.2688 18.5188V15.2776C12.2688 14.4577 12.3957 13.6152 12.7932 12.9553C13.2217 12.2439 13.9307 11.806 14.8957 11.8059C16.0402 11.8059 16.8976 12.7784 16.8977 13.8889V18.0559C16.8977 18.5116 16.8998 18.7837 16.926 18.9787C16.926 19.125 17.0142 19.15 17.0832 19.1692C17.1015 19.1742 17.1185 19.1793 17.132 19.1858C17.3272 19.212 17.5998 19.2131 18.0559 19.2131H18.5178C18.9735 19.2131 19.2456 19.212 19.4406 19.1858C19.5049 19.1619 19.6359 19.0865 19.6467 18.9787C19.6729 18.7837 19.6749 18.5116 19.675 18.0559L19.676 12.9631C19.6759 11.0978 17.8527 9.49162 16.0158 9.49143C15.0181 9.49143 14.1152 9.97888 13.5158 10.7668C13.3354 11.004 13.0238 11.0992 12.7414 11.0041C12.459 10.9089 12.2688 10.644 12.2688 10.3459C12.2688 10.0415 12.2683 9.85963 12.2561 9.7258C12.2482 9.58639 12.1045 9.52015 12.0334 9.50412C11.8996 9.49186 11.7177 9.49045 11.4133 9.49045H10.6477ZM3.93478 1.15744C5.46877 1.15744 6.71289 2.40085 6.7131 3.93479C6.7131 5.46891 5.4689 6.71311 3.93478 6.71311C2.40084 6.71289 1.15744 5.46878 1.15744 3.93479C1.15765 2.40098 2.40097 1.15766 3.93478 1.15744ZM3.93478 2.54611C3.16804 2.54633 2.54632 3.16804 2.54611 3.93479C2.54611 4.70171 3.1679 5.32422 3.93478 5.32444C4.70184 5.32444 5.32443 4.70185 5.32443 3.93479C5.32421 3.16791 4.70171 2.54611 3.93478 2.54611Z" fill="#161616"/>
</svg>
