<svg width="23" height="23" viewBox="0 0 23 23" fill="none" xmlns="http://www.w3.org/2000/svg">
<path fill-rule="evenodd" clip-rule="evenodd" d="M7.21801 6.99588C7.21801 3.73164 10.0195 1.15741 13.3838 1.15741L16.4983 1.15741C16.7387 1.15741 16.9765 1.16838 17.1917 1.21282C17.4124 1.25841 17.6557 1.34842 17.8606 1.54112C18.2641 1.9205 18.287 2.47975 18.287 2.88066V4.93827C18.287 5.33918 18.2641 5.89843 17.8606 6.27781C17.6557 6.47051 17.4124 6.56052 17.1917 6.60611C16.9765 6.65055 16.7387 6.66152 16.4983 6.66152H13.3838C13.122 6.66152 12.984 6.85096 12.984 6.99588V8.87346L15.216 8.87346C15.5239 8.87346 15.8181 8.88868 16.073 8.94546C16.3275 9.00216 16.6282 9.11894 16.8459 9.39032C17.0694 9.66883 17.112 9.99239 17.0991 10.2596C17.0864 10.5198 17.0178 10.8006 16.9326 11.0813L16.4636 12.6245C16.3671 12.942 16.2228 13.3386 15.8615 13.5949C15.5108 13.8436 15.0884 13.8632 14.747 13.8632H12.984L12.984 19.3416C12.984 19.7425 12.9611 20.3017 12.5576 20.6811C12.3526 20.8738 12.1094 20.9638 11.8887 21.0094C11.6735 21.0538 11.4357 21.0648 11.1953 21.0648L9.00673 21.0648C8.76637 21.0648 8.52852 21.0538 8.31335 21.0094C8.09261 20.9638 7.84938 20.8738 7.64442 20.6811C7.2409 20.3017 7.21801 19.7425 7.21801 19.3416L7.21801 13.8632H5.72391C5.48354 13.8632 5.24569 13.8522 5.03052 13.8078C4.80979 13.7622 4.56655 13.6722 4.36159 13.4795C3.95807 13.1001 3.93519 12.5408 3.93519 12.1399L3.93519 10.5967C3.93519 10.1958 3.95807 9.63654 4.36159 9.25717C4.56655 9.06447 4.80979 8.97446 5.03052 8.92887C5.24569 8.88443 5.48354 8.87346 5.72391 8.87346H7.21801V6.99588ZM13.3838 2.5463C10.7046 2.5463 8.6069 4.57818 8.6069 6.99588V9.5679C8.6069 9.95143 8.29599 10.2623 7.91246 10.2623L5.72391 10.2623C5.53695 10.2623 5.41749 10.2711 5.34049 10.2837C5.33111 10.3474 5.32407 10.4457 5.32407 10.5967L5.32407 12.1399C5.32407 12.2909 5.33111 12.3892 5.34049 12.4529C5.41749 12.4656 5.53695 12.4743 5.72391 12.4743L7.91246 12.4743C8.29599 12.4743 8.6069 12.7852 8.6069 13.1687V19.3416C8.6069 19.4926 8.61395 19.5909 8.62333 19.6546C8.70033 19.6672 8.81979 19.6759 9.00673 19.6759L11.1953 19.6759C11.3822 19.6759 11.5017 19.6672 11.5787 19.6546C11.5881 19.5909 11.5951 19.4926 11.5951 19.3416V13.1687C11.5951 12.7852 11.906 12.4743 12.2896 12.4743H14.747C14.9039 12.4743 14.9942 12.4665 15.0483 12.4566C15.0685 12.416 15.0968 12.3453 15.1347 12.2206L15.6037 10.6774C15.6569 10.5025 15.6864 10.3771 15.7009 10.2883C15.5951 10.2725 15.4403 10.2623 15.216 10.2623L12.2896 10.2623C11.906 10.2623 11.5951 9.95143 11.5951 9.5679V6.99588C11.5951 6.00442 12.4369 5.27263 13.3838 5.27263H16.4983C16.6853 5.27263 16.8047 5.26392 16.8817 5.25128C16.8911 5.18757 16.8981 5.08927 16.8981 4.93827V2.88066C16.8981 2.72966 16.8911 2.63135 16.8817 2.56765C16.8047 2.55501 16.6853 2.5463 16.4983 2.5463L13.3838 2.5463Z" fill="#161616"/>
</svg>
