<svg width="23" height="23" viewBox="0 0 23 23" fill="none" xmlns="http://www.w3.org/2000/svg">
<path d="M11.1114 21.0651C16.6086 21.065 21.0645 16.6082 21.0645 11.111C21.0645 5.61385 16.6085 1.15799 11.1114 1.15786C5.61417 1.15786 1.15738 5.61377 1.15731 11.111C1.15731 12.4822 1.43477 13.7906 1.93758 14.9811C2.06948 15.2934 2.15846 15.5045 2.21785 15.6667C2.27802 15.8309 2.28701 15.891 2.28817 15.9069C2.29418 15.9938 2.27229 16.1124 2.12215 16.6735L1.18074 20.1911C1.11681 20.4304 1.18545 20.6857 1.36043 20.861C1.53576 21.0363 1.7918 21.1057 2.03133 21.0417L5.54891 20.1002C6.10999 19.9501 6.22856 19.9282 6.31551 19.9342C6.33158 19.9354 6.39179 19.9445 6.55574 20.0045C6.71791 20.0639 6.92904 20.1529 7.24129 20.2848C8.43179 20.7876 9.74026 21.0651 11.1114 21.0651ZM11.1114 19.6764C9.92915 19.6764 8.80395 19.4364 7.78133 19.0045L7.76571 18.9977C7.47367 18.8744 7.23104 18.7723 7.03328 18.6999C6.83525 18.6273 6.62675 18.5634 6.41121 18.5485C6.06106 18.5243 5.69765 18.6218 5.28035 18.734C5.25051 18.7421 5.21995 18.7503 5.18953 18.7584L2.83309 19.3893L3.46395 17.0329C3.47208 17.0024 3.48033 16.9719 3.48836 16.942C3.60062 16.5247 3.69814 16.1613 3.67391 15.8112C3.65897 15.5956 3.59505 15.3871 3.52254 15.1891C3.45013 14.9914 3.34801 14.7487 3.22469 14.4567L3.21785 14.4411C2.78595 13.4184 2.54598 12.2932 2.54598 11.111C2.54605 6.38083 6.38124 2.54653 11.1114 2.54653C15.8415 2.54666 19.6758 6.38091 19.6759 11.111C19.6759 15.8411 15.8415 19.6763 11.1114 19.6764ZM13.7179 16.3297C14.0692 16.4095 14.3976 16.4835 14.8292 16.3932C15.1442 16.3273 15.4372 16.1605 15.6641 15.9792C15.891 15.7978 16.1183 15.5491 16.252 15.2565C16.4361 14.8536 16.4354 14.4438 16.4347 13.9997C16.4346 13.9712 16.4347 13.9425 16.4347 13.9137C16.4346 13.7097 16.4283 13.3661 16.296 13.0485C16.1379 12.6691 15.8124 12.356 15.3018 12.276L15.296 12.2751C14.6633 12.1759 14.182 12.1009 13.8419 12.0514C13.6718 12.0267 13.5305 12.0073 13.42 11.9948C13.3292 11.9845 13.2042 11.9721 13.0997 11.9782C12.6465 12.0047 12.2861 12.1882 12.0069 12.3795C11.8292 12.5013 11.6353 12.6644 11.4835 12.7926C11.4239 12.8429 11.3707 12.8885 11.3272 12.9235L10.6964 13.4313C10.3425 13.1667 10.001 12.8716 9.67586 12.5465C9.35072 12.2214 9.05481 11.8799 8.79012 11.526L9.29891 10.8942C9.33389 10.8508 9.37949 10.7975 9.42977 10.7379C9.55798 10.5861 9.72117 10.393 9.84285 10.2155C10.0341 9.93631 10.2177 9.57578 10.2442 9.12271C10.2503 9.01825 10.237 8.89324 10.2266 8.80239C10.2141 8.69182 10.1957 8.54982 10.171 8.37954C10.1215 8.03929 10.0455 7.55824 9.94637 6.92544L9.94539 6.92056C9.86538 6.41002 9.55327 6.08357 9.17391 5.92544C8.8565 5.79317 8.51277 5.78678 8.30867 5.78677C8.28001 5.78677 8.25111 5.78682 8.22274 5.78677C7.77871 5.78602 7.36875 5.78547 6.9659 5.96939C6.67318 6.10309 6.42364 6.33039 6.24227 6.55728C6.06092 6.78414 5.89418 7.0773 5.82821 7.39224C5.7378 7.82404 5.8129 8.15308 5.89266 8.50454C5.89626 8.52044 5.89979 8.5364 5.9034 8.55239C6.30573 10.3341 7.24639 12.0819 8.69344 13.529C10.1404 14.9759 11.8874 15.9167 13.669 16.319C13.6853 16.3227 13.7017 16.3261 13.7179 16.3297ZM8.00887 10.2829C7.66419 9.62044 7.41311 8.93413 7.25789 8.24673C7.16607 7.84006 7.16411 7.78962 7.18758 7.67739C7.19627 7.63589 7.23705 7.53728 7.32723 7.42446C7.41738 7.31172 7.50449 7.25067 7.54305 7.23306C7.63848 7.18952 7.73066 7.17642 8.30867 7.17642C8.39942 7.17643 8.47312 7.17884 8.53524 7.18618C8.55368 7.18836 8.56986 7.19061 8.58309 7.19302C8.67869 7.80304 8.74923 8.25817 8.79598 8.57974C8.82011 8.74575 8.83669 8.86997 8.84676 8.95864C8.85376 9.02027 8.85587 9.04979 8.85653 9.05728C8.84704 9.16161 8.80284 9.27496 8.69637 9.43032C8.61344 9.55133 8.5323 9.64774 8.43074 9.76724C8.36867 9.84028 8.29869 9.92246 8.21688 10.0241L8.00887 10.2829ZM14.545 15.0338C14.4325 15.0574 14.382 15.0555 13.9747 14.9635C13.2875 14.8083 12.6017 14.5581 11.9395 14.2135L12.1983 14.0045C12.2999 13.9228 12.3821 13.8537 12.4552 13.7917C12.5747 13.6901 12.671 13.608 12.7921 13.5251C12.9474 13.4187 13.0608 13.3753 13.1651 13.3659C13.1727 13.3665 13.2022 13.3677 13.2638 13.3747C13.3524 13.3847 13.4767 13.4023 13.6427 13.4264C13.9641 13.4732 14.4188 13.5438 15.0284 13.6393C15.0308 13.6525 15.034 13.6687 15.0362 13.6872C15.0435 13.7493 15.046 13.823 15.046 13.9137C15.046 14.492 15.0329 14.5839 14.9893 14.6793C14.9717 14.7179 14.9098 14.805 14.797 14.8952C14.6844 14.985 14.5865 15.0251 14.545 15.0338Z" fill="#161616"/>
</svg>
