<svg width="23" height="23" viewBox="0 0 23 23" fill="none" xmlns="http://www.w3.org/2000/svg">
<path d="M11.1114 19.6756C12.8322 19.6755 14.4856 19.5062 16.0216 19.1931C16.0612 19.1851 16.1007 19.1767 16.1397 19.1687C17.8937 18.8117 19.0623 18.5737 20.0694 17.2791C21.0659 15.9979 21.0654 14.5118 21.0645 12.2107V10.0115C21.0654 7.71039 21.0659 6.22431 20.0694 4.94314C19.0623 3.6485 17.8937 3.41049 16.1397 3.05349C16.1008 3.04555 16.0612 3.03714 16.0216 3.02908C14.4856 2.71598 12.8322 2.54667 11.1114 2.54665C9.39049 2.54665 7.73639 2.71595 6.20029 3.02908C6.1609 3.03711 6.12191 3.04559 6.0831 3.05349C4.3289 3.41054 3.15968 3.64823 2.15244 4.94314C1.15598 6.22431 1.15646 7.71039 1.15732 10.0115L1.15732 12.2107C1.15646 14.5118 1.15598 15.9979 2.15244 17.2791C3.15968 18.574 4.3289 18.8117 6.0831 19.1687C6.12191 19.1766 6.1609 19.1851 6.20029 19.1931C7.73639 19.5063 9.39049 19.6756 11.1114 19.6756ZM11.1114 18.2869C9.48124 18.2869 7.9208 18.1258 6.47861 17.8318C4.57885 17.4446 3.91675 17.2847 3.24912 16.4265C2.57783 15.5634 2.546 14.594 2.54599 12.0037L2.54599 10.2185C2.546 7.62826 2.57783 6.65877 3.24912 5.79568C3.91675 4.93753 4.57886 4.77766 6.47861 4.3904C7.9208 4.09645 9.48124 3.93533 11.1114 3.93533C12.7417 3.93534 14.302 4.09642 15.7442 4.3904C17.6441 4.77768 18.306 4.93732 18.9737 5.79568C19.645 6.65877 19.6759 7.62826 19.6759 10.2185V12.0037C19.6759 14.594 19.645 15.5634 18.9737 16.4265C18.306 17.2849 17.6441 17.4445 15.7442 17.8318C14.302 18.1258 12.7417 18.2869 11.1114 18.2869ZM9.24326 14.9881C9.78796 15.1308 10.3231 14.9932 10.8448 14.7771C11.3588 14.5643 11.9838 14.2203 12.7472 13.7996L12.8224 13.7576C13.5207 13.3728 14.0977 13.055 14.5128 12.7605C14.9287 12.4654 15.3235 12.0994 15.4542 11.5662C15.5275 11.2668 15.5275 10.9554 15.4542 10.656C15.3235 10.1228 14.9287 9.75677 14.5128 9.46169C14.0977 9.1672 13.5206 8.84939 12.8224 8.46462L12.7472 8.42263C11.9838 8.00194 11.3588 7.65795 10.8448 7.44509C10.3231 7.22907 9.78795 7.09141 9.24326 7.23415C8.93376 7.31527 8.64291 7.45921 8.39463 7.65994C7.93897 8.02836 7.77784 8.55609 7.70713 9.08767C7.63876 9.60194 7.63874 10.2676 7.63877 11.0613V11.1609C7.63874 11.9546 7.63876 12.6203 7.70713 13.1345C7.77784 13.6661 7.93898 14.1938 8.39463 14.5623C8.64291 14.763 8.93376 14.9069 9.24326 14.9881ZM9.5958 13.6443C9.46899 13.6111 9.35682 13.5543 9.26767 13.4822C9.22529 13.4479 9.13783 13.3553 9.08408 12.951C9.02936 12.5392 9.02744 11.9674 9.02744 11.1111C9.02744 10.2548 9.02935 9.68301 9.08408 9.27126C9.13785 8.86682 9.2253 8.77432 9.26767 8.74001C9.35682 8.66794 9.46899 8.61114 9.5958 8.5779C9.69518 8.55197 9.87981 8.54869 10.3136 8.7283C10.7473 8.90792 11.3036 9.21374 12.1134 9.65994C12.8597 10.0712 13.3663 10.3514 13.7091 10.5945C14.0586 10.8425 14.0988 10.9595 14.1056 10.9871C14.1256 11.0693 14.1257 11.1539 14.1056 11.2361C14.0985 11.2644 14.057 11.3808 13.7091 11.6277C13.3663 11.8708 12.8597 12.151 12.1134 12.5623C11.3036 13.0085 10.7473 13.3143 10.3136 13.4939C9.87977 13.6735 9.69518 13.6703 9.5958 13.6443Z" fill="#161616"/>
</svg>
