<svg width="40" height="40" viewBox="0 0 40 40" fill="none" xmlns="http://www.w3.org/2000/svg">
<path d="M27.5 36.25C27.5 36.5815 27.3683 36.8995 27.1339 37.1339C26.8995 37.3683 26.5815 37.5 26.25 37.5H13.75C13.4185 37.5 13.1005 37.3683 12.8661 37.1339C12.6317 36.8995 12.5 36.5815 12.5 36.25C12.5 35.9185 12.6317 35.6005 12.8661 35.3661C13.1005 35.1317 13.4185 35 13.75 35H26.25C26.5815 35 26.8995 35.1317 27.1339 35.3661C27.3683 35.6005 27.5 35.9185 27.5 36.25ZM33.75 16.25C33.7554 18.3338 33.2846 20.3913 32.3737 22.2655C31.4627 24.1396 30.1357 25.7809 28.4938 27.0641C28.1867 27.2994 27.9376 27.6018 27.7654 27.9482C27.5931 28.2945 27.5024 28.6757 27.5 29.0625V30C27.5 30.663 27.2366 31.2989 26.7678 31.7678C26.2989 32.2366 25.663 32.5 25 32.5H15C14.337 32.5 13.7011 32.2366 13.2322 31.7678C12.7634 31.2989 12.5 30.663 12.5 30V29.0625C12.4997 28.6803 12.4119 28.3033 12.2431 27.9603C12.0744 27.6174 11.8292 27.3178 11.5266 27.0844C9.88875 25.8088 8.56257 24.1774 7.6484 22.3136C6.73424 20.4498 6.25604 18.4025 6.25 16.3266C6.20938 8.87969 12.2281 2.67813 19.6688 2.5C21.5021 2.45582 23.3258 2.77883 25.0324 3.45003C26.7391 4.12122 28.2942 5.12704 29.6063 6.40827C30.9184 7.6895 31.961 9.22026 32.6726 10.9105C33.3842 12.6006 33.7505 14.4161 33.75 16.25ZM31.25 16.25C31.2504 14.7495 30.9507 13.264 30.3684 11.8811C29.7861 10.4981 28.933 9.24565 27.8594 8.19736C26.7858 7.14907 25.5133 6.32615 24.1169 5.77704C22.7204 5.22794 21.2282 4.96374 19.7281 5C13.6344 5.14375 8.71719 10.2172 8.75 16.3109C8.75571 18.0087 9.14749 19.683 9.89571 21.207C10.6439 22.7311 11.729 24.065 13.0688 25.1078C13.671 25.576 14.1582 26.1758 14.4929 26.8612C14.8276 27.5467 15.0011 28.2997 15 29.0625V30H25V29.0625C25.0017 28.2975 25.1782 27.543 25.5158 26.8565C25.8535 26.1701 26.3435 25.5698 26.9484 25.1016C28.2923 24.0513 29.3785 22.7079 30.124 21.1738C30.8695 19.6397 31.2546 17.9556 31.25 16.25ZM28.7328 14.7906C28.4087 12.9802 27.5376 11.3124 26.2369 10.012C24.9363 8.71161 23.2684 7.84093 21.4578 7.51719C21.2959 7.4899 21.1302 7.49476 20.9702 7.5315C20.8102 7.56825 20.659 7.63615 20.5252 7.73133C20.3914 7.82651 20.2777 7.9471 20.1906 8.08623C20.1034 8.22536 20.0445 8.38029 20.0172 8.54219C19.9899 8.70408 19.9948 8.86977 20.0315 9.02978C20.0682 9.1898 20.1361 9.34101 20.2313 9.47479C20.3265 9.60856 20.4471 9.72228 20.5862 9.80944C20.7254 9.89661 20.8803 9.95552 21.0422 9.98281C23.6313 10.4188 25.8281 12.6156 26.2672 15.2094C26.3167 15.5005 26.4676 15.7647 26.6932 15.9552C26.9189 16.1457 27.2047 16.2501 27.5 16.25C27.5706 16.2496 27.6412 16.2438 27.7109 16.2328C28.0377 16.177 28.3289 15.9938 28.5205 15.7233C28.7121 15.4529 28.7885 15.1174 28.7328 14.7906Z" fill="white"/>
</svg>
