<svg width="16" height="16" viewBox="0 0 16 16" fill="none" xmlns="http://www.w3.org/2000/svg">
<path d="M6.52094 1.21314C7.48618 1.15183 8.50905 1.15181 9.47895 1.21314C12.5114 1.41665 14.9444 3.88072 15.1391 6.94654C15.1738 7.52587 15.1738 8.11139 15.1391 8.68873C14.9437 11.7559 12.5114 14.2206 9.4809 14.4241C8.50893 14.4921 7.48398 14.4921 6.51801 14.4241C6.13201 14.4001 5.7226 14.3064 5.3686 14.1604L5.28657 14.1262C5.19396 14.0883 5.09902 14.0497 5.02973 14.0237C4.97577 14.0603 4.90428 14.1112 4.83442 14.1604L4.7934 14.1897C4.21215 14.6223 3.54599 14.8322 2.76215 14.8323L2.76313 14.8313C2.72722 14.8313 2.6913 14.8317 2.65473 14.8303L2.60297 14.8284C2.1477 14.8144 1.7534 14.802 1.51606 14.4221C1.51213 14.4156 1.50826 14.4082 1.50434 14.4016C1.27969 14.0003 1.47522 13.6307 1.74653 13.1194L1.75825 13.0969C1.98025 12.6803 2.19831 12.1031 1.99164 11.7024C1.30444 10.6785 0.924421 9.66494 0.861761 8.6897C0.827123 8.11063 0.82713 7.52556 0.861761 6.94849C1.05709 3.88116 3.49027 1.41581 6.52094 1.21314ZM9.41352 2.20826C8.48636 2.15029 7.50788 2.15027 6.58539 2.20826C4.05539 2.37759 2.02216 4.4414 1.85883 7.00806C1.82684 7.53603 1.82683 8.09693 1.85883 8.62623C1.9102 9.42675 2.23925 10.2805 2.83442 11.1624C2.84238 11.1743 2.85055 11.1872 2.85785 11.2004C3.21052 11.8378 3.13802 12.6334 2.64203 13.5647L2.63032 13.5862C2.58832 13.6649 2.54429 13.7491 2.50629 13.8245L2.63422 13.8284L2.68305 13.8303C3.29551 13.8443 3.76704 13.707 4.2016 13.3831C4.20481 13.3811 4.20721 13.3782 4.21039 13.3762L4.25629 13.344C4.54673 13.1375 4.69253 13.0329 4.89106 13.0022C5.10839 12.9695 5.29604 13.0464 5.66938 13.2004L5.75043 13.2336C6.00177 13.3376 6.30575 13.4067 6.58442 13.4241C7.50882 13.4887 8.48517 13.4894 9.41157 13.4241H9.41352C11.9454 13.2546 13.9771 11.1902 14.1411 8.62427C14.173 8.09651 14.173 7.53618 14.1411 7.00709C13.9777 4.44242 11.9449 2.37826 9.41352 2.20826ZM8.00629 9.49439C8.28199 9.49459 8.50608 9.7187 8.50629 9.99439C8.50629 10.2703 8.28212 10.4942 8.00629 10.4944C7.73029 10.4944 7.50239 10.2704 7.50239 9.99439C7.5026 9.71857 7.72359 9.49439 7.99946 9.49439H8.00629ZM8.00043 4.82837C8.82754 4.82861 9.50039 5.51292 9.50043 6.35474C9.50043 6.6433 9.41865 6.92584 9.2641 7.1731C9.16283 7.33234 9.04694 7.48071 8.935 7.6233C8.72167 7.8953 8.50043 8.17712 8.50043 8.40845V8.66138C8.50043 8.93724 8.27623 9.16115 8.00043 9.16138C7.72443 9.16138 7.50043 8.93738 7.50043 8.66138V8.40845C7.50043 7.83114 7.8439 7.39277 8.14789 7.00611C8.24923 6.87678 8.34543 6.75487 8.41743 6.64087C8.47009 6.55688 8.50043 6.45407 8.50043 6.35474C8.50039 6.06426 8.27621 5.82862 8.00043 5.82837C7.72446 5.82837 7.50047 6.06411 7.50043 6.35474C7.50043 6.64526 7.27623 6.85452 7.00043 6.85474C6.72443 6.85474 6.50043 6.63074 6.50043 6.35474C6.50047 5.51278 7.17312 4.82837 8.00043 4.82837Z" fill="#161616"/>
</svg>
