<svg width="16" height="16" viewBox="0 0 16 16" fill="none" xmlns="http://www.w3.org/2000/svg">
<path d="M10.3809 10.5781C10.8305 10.5783 11.2567 10.9589 11.1934 11.4775C11.1182 12.0909 10.8556 12.8328 10.1504 13.2119C10.0912 13.7524 9.95665 14.2364 9.64062 14.5928C9.24398 15.0399 8.66875 15.1737 8.00586 15.167C7.28201 15.1791 6.7014 15.0096 6.31543 14.541C6.01134 14.1718 5.89042 13.6838 5.83008 13.1777C5.53507 12.9913 5.31046 12.7727 5.14844 12.5098C4.94824 12.1847 4.87008 11.8339 4.8291 11.4932C4.76802 10.9837 5.17852 10.5782 5.65039 10.5781H10.3809ZM6.87207 13.3721C6.92468 13.6284 6.9969 13.7948 7.08789 13.9053C7.20111 14.0425 7.41951 14.1775 7.99414 14.167C7.99919 14.1669 8.00472 14.1669 8.00977 14.167C8.56099 14.1735 8.77875 14.0578 8.89258 13.9297C8.98352 13.8271 9.06302 13.6591 9.11719 13.3721H6.87207ZM5.85352 11.5781C5.88674 11.7485 5.93249 11.8773 5.99902 11.9854C6.0755 12.1095 6.19937 12.2394 6.42871 12.3721H9.58984C9.8922 12.2472 10.076 11.9708 10.1631 11.5781H5.85352ZM8 3.16699C10.684 3.16699 12.833 5.40732 12.833 8.1377C12.8329 8.87332 12.6777 9.5732 12.3975 10.2031C12.2852 10.4554 11.9896 10.5691 11.7373 10.457C11.4851 10.3448 11.3713 10.0491 11.4834 9.79688C11.7076 9.29295 11.8329 8.73129 11.833 8.1377C11.833 5.92998 10.1025 4.16699 8 4.16699C5.89749 4.16699 4.16699 5.92998 4.16699 8.1377C4.16705 8.7313 4.29242 9.29296 4.5166 9.79688C4.62873 10.0491 4.51494 10.3448 4.2627 10.457C4.01043 10.5691 3.71476 10.4554 3.60254 10.2031C3.32233 9.57319 3.16705 8.87331 3.16699 8.1377C3.16699 5.40732 5.31604 3.16699 8 3.16699ZM2 7.5C2.27614 7.5 2.5 7.72386 2.5 8C2.5 8.27614 2.27614 8.5 2 8.5H1.33301C1.05702 8.49982 0.833008 8.27603 0.833008 8C0.833008 7.72397 1.05702 7.50018 1.33301 7.5H2ZM14.667 7.5C14.943 7.50018 15.167 7.72397 15.167 8C15.167 8.27603 14.943 8.49982 14.667 8.5H14C13.7239 8.5 13.5 8.27614 13.5 8C13.5 7.72386 13.7239 7.5 14 7.5H14.667ZM2.93262 2.93262C3.12777 2.73746 3.44436 2.73768 3.63965 2.93262L4.11133 3.4043C4.30659 3.59956 4.30659 3.91607 4.11133 4.11133C3.91607 4.30659 3.59956 4.30659 3.4043 4.11133L2.93262 3.63965C2.73768 3.44436 2.73746 3.12777 2.93262 2.93262ZM12.3604 2.93262C12.5556 2.73767 12.8722 2.73748 13.0674 2.93262C13.2625 3.12778 13.2623 3.44436 13.0674 3.63965L12.5957 4.11133C12.4004 4.30659 12.0839 4.30659 11.8887 4.11133C11.6934 3.91607 11.6934 3.59955 11.8887 3.4043L12.3604 2.93262ZM8 0.833008C8.27603 0.833008 8.49982 1.05702 8.5 1.33301V2C8.5 2.27614 8.27614 2.5 8 2.5C7.72386 2.5 7.5 2.27614 7.5 2V1.33301C7.50018 1.05702 7.72397 0.833008 8 0.833008Z" fill="#161616"/>
</svg>
